<svg height="407pt" viewBox="-3 0 407 407.8" width="407pt" xmlns="http://www.w3.org/2000/svg"><path d="m319.421875 148.53125c12.324219 0 22.316406-9.988281 22.316406-22.316406.003907-12.324219-9.988281-22.316406-22.316406-22.316406-12.324219.003906-22.316406 9.996093-22.3125 22.320312.003906 12.320312 9.988281 22.308594 22.3125 22.3125zm80.976563 51.46875c.121093 47.492188-16.824219 93.445312-47.75 129.488281l33.300781 78.3125-116.128907-20.320312c-22.210937 8.269531-45.71875 12.507812-69.421874 12.519531-110.457032 0-200-89.539062-200-200s89.542968-200 200-200c110.460937 0 200 89.539062 200 200zm0 0" fill="#f8ec7d"/><path d="m319.421875 148.53125c-12.324219-.003906-22.316406-9.996094-22.3125-22.320312.003906-12.324219 9.996094-22.3125 22.320313-22.3125 12.324218.003906 22.3125 9.996093 22.308593 22.320312 0 12.324219-9.992187 22.316406-22.316406 22.3125zm0 0" fill="#e48e66"/><path d="m130.96875 155.121094h136.140625c16.570313 0 30 13.429687 30 30v88.777344c0 16.570312-13.429687 30-30 30h-178.050781c-16.566406 0-30-13.429688-30-30v-88.777344c0-16.570313 13.433594-30 30-30zm125.320312 79.097656v-11.910156c0-7.730469-6.265624-14-14-14h-.269531c-7.730469 0-14 6.269531-14 14v11.910156zm-49.9375 22.832031v-.261719h-56.53125v.261719c-.003906 15.464844 12.535157 28.003907 28 28h.53125c15.464844.003907 28.003907-12.535156 28-28zm-78.210937-22.832031v-11.910156c0-7.730469-6.269531-14-14-14h-.261719c-7.730468 0-14 6.269531-14 14v11.910156zm0 0" fill="#e48e66"/><g fill="#6fe3ff"><path d="m256.289062 222.308594v11.910156h-28.269531v-11.910156c0-7.730469 6.269531-14 14-14h.269531c7.734376 0 14 6.269531 14 14zm0 0"/><path d="m206.351562 256.789062v.261719c.003907 15.464844-12.535156 28.003907-28 28h-.53125c-15.464843.003907-28.003906-12.535156-28-28v-.261719zm0 0"/><path d="m128.140625 222.308594v11.910156h-28.261719v-11.910156c0-7.730469 6.269532-14 14-14h.261719c7.730469 0 14 6.269531 14 14zm0 0"/></g><path d="m313.421875 155.050781h12v43.777344h-12zm0 0" fill="#e2d574"/><path d="m177.789062 132.898438c-3.3125 0-6-2.683594-6-6v-20.726563c0-3.316406 2.6875-6 6-6 3.316407 0 6 2.683594 6 6v20.726563c0 3.316406-2.683593 6-6 6zm0 0" fill="#e48e66"/><path d="m319.421875 154.53125c-15.640625-.003906-28.316406-12.683594-28.3125-28.320312.003906-15.640626 12.683594-28.3125 28.320313-28.3125 15.636718.003906 28.3125 12.683593 28.308593 28.320312-.015625 15.632812-12.6875 28.300781-28.316406 28.3125zm0-44.632812c-9.011719.003906-16.3125 7.308593-16.3125 16.316406 0 9.011718 7.304687 16.3125 16.3125 16.316406 9.011719 0 16.316406-7.300781 16.316406-16.3125-.007812-9.007812-7.308593-16.3125-16.316406-16.320312zm0 0" fill="#e48e66"/><path d="m297.109375 184.878906c24.648437 0 44.628906 19.984375 44.628906 44.632813 0 24.648437-19.980469 44.628906-44.628906 44.628906zm0 0" fill="#6fe3ff"/><path d="m225.199219 133.96875v21.152344h-94.230469v-21.152344c0-3.902344 3.167969-7.070312 7.070312-7.070312h80.089844c3.90625.003906 7.066406 3.167968 7.070313 7.070312zm0 0" fill="#6fe3ff"/></svg>